<svg version="1.1" viewBox="0.0 0.0 678.1942257217847 578.3228346456693" fill="none" stroke="none" stroke-linecap="square" stroke-miterlimit="10" xmlns:xlink="http://www.w3.org/1999/xlink" xmlns="http://www.w3.org/2000/svg"><clipPath id="p.0"><path d="m0 0l678.1942 0l0 578.3228l-678.1942 0l0 -578.3228z" clip-rule="nonzero"/></clipPath><g clip-path="url(#p.0)"><path fill="#000000" fill-opacity="0.0" d="m0 0l678.1942 0l0 578.3228l-678.1942 0z" fill-rule="evenodd"/><path fill="#000000" fill-opacity="0.0" d="m515.6142 379.0433l-175.37012 -179.74803" fill-rule="evenodd"/><path stroke="#ffffff" stroke-width="24.0" stroke-linejoin="round" stroke-linecap="butt" d="m515.6142 379.0433l-175.37012 -179.74803" fill-rule="evenodd"/><path fill="#ffffff" d="m197.31496 151.67455l0 0c0 -36.37252 29.485748 -65.85827 65.85826 -65.85827l154.14175 0l0 0c17.466675 0 34.217987 6.938614 46.568817 19.289436c12.35083 12.350822 19.289429 29.102127 19.289429 46.568832l0 0l0 0c0 36.372513 -29.485748 65.85826 -65.858246 65.85826l-154.14175 0c-36.372513 0 -65.85826 -29.485748 -65.85826 -65.85826z" fill-rule="evenodd"/><path stroke="#ffffff" stroke-width="16.0" stroke-linejoin="round" stroke-linecap="butt" d="m197.31496 151.67455l0 0c0 -36.37252 29.485748 -65.85827 65.85826 -65.85827l154.14175 0l0 0c17.466675 0 34.217987 6.938614 46.568817 19.289436c12.35083 12.350822 19.289429 29.102127 19.289429 46.568832l0 0l0 0c0 36.372513 -29.485748 65.85826 -65.858246 65.85826l-154.14175 0c-36.372513 0 -65.85826 -29.485748 -65.85826 -65.85826z" fill-rule="evenodd"/><path fill="#000000" fill-opacity="0.0" d="m340.2467 199.28477l-177.66928 179.74803" fill-rule="evenodd"/><path stroke="#ffffff" stroke-width="24.0" stroke-linejoin="round" stroke-linecap="butt" d="m340.2467 199.28477l-177.66928 179.74803" fill-rule="evenodd"/><path fill="#ffffff" d="m19.653543 426.6509l0 0c0 -36.372498 29.48575 -65.858246 65.85827 -65.858246l154.14174 0l0 0c17.46669 0 34.218002 6.9385986 46.568832 19.289429c12.3508 12.35083 19.289429 29.102142 19.289429 46.568817l0 0l0 0c0 36.372528 -29.485748 65.85828 -65.85826 65.85828l-154.14174 0c-36.372517 0 -65.85827 -29.485748 -65.85827 -65.85828z" fill-rule="evenodd"/><path stroke="#ffffff" stroke-width="16.0" stroke-linejoin="round" stroke-linecap="butt" d="m19.653543 426.6509l0 0c0 -36.372498 29.48575 -65.858246 65.85827 -65.858246l154.14174 0l0 0c17.46669 0 34.218002 6.9385986 46.568832 19.289429c12.3508 12.35083 19.289429 29.102142 19.289429 46.568817l0 0l0 0c0 36.372528 -29.485748 65.85828 -65.85826 65.85828l-154.14174 0c-36.372517 0 -65.85827 -29.485748 -65.85827 -65.85828z" fill-rule="evenodd"/><path fill="#000000" fill-opacity="0.0" d="m340.2467 199.28477l-177.66928 179.74803" fill-rule="evenodd"/><path stroke="#000000" stroke-width="16.0" stroke-linejoin="round" stroke-linecap="butt" d="m340.2467 199.28477l-177.66928 179.74803" fill-rule="evenodd"/><path fill="#ffffff" d="m38.333332 426.65485l0 0c0 -26.292236 21.314068 -47.606293 47.606304 -47.606293l153.29134 0l0 0c12.625977 0 24.734818 5.0156555 33.662735 13.943573c8.9279175 8.9279175 13.943573 21.036743 13.943573 33.66272l0 0l0 0c0 26.292236 -21.314087 47.606323 -47.606308 47.606323l-153.29134 0c-26.292236 0 -47.606304 -21.314087 -47.606304 -47.606323z" fill-rule="evenodd"/><path stroke="#000000" stroke-width="16.0" stroke-linejoin="round" stroke-linecap="butt" d="m38.333332 426.65485l0 0c0 -26.292236 21.314068 -47.606293 47.606304 -47.606293l153.29134 0l0 0c12.625977 0 24.734818 5.0156555 33.662735 13.943573c8.9279175 8.9279175 13.943573 21.036743 13.943573 33.66272l0 0l0 0c0 26.292236 -21.314087 47.606323 -47.606308 47.606323l-153.29134 0c-26.292236 0 -47.606304 -21.314087 -47.606304 -47.606323z" fill-rule="evenodd"/><path fill="#ffffff" d="m372.6824 426.64566l0 0c0 -36.372498 29.485748 -65.858246 65.85828 -65.858246l154.14175 0l0 0c17.466675 0 34.218018 6.9385986 46.568787 19.289429c12.35083 12.35083 19.28949 29.102142 19.28949 46.568817l0 0l0 0c0 36.372528 -29.485779 65.85828 -65.85828 65.85828l-154.14175 0c-36.372528 0 -65.85828 -29.485748 -65.85828 -65.85828z" fill-rule="evenodd"/><path stroke="#ffffff" stroke-width="16.0" stroke-linejoin="round" stroke-linecap="butt" d="m372.6824 426.64566l0 0c0 -36.372498 29.485748 -65.858246 65.85828 -65.858246l154.14175 0l0 0c17.466675 0 34.218018 6.9385986 46.568787 19.289429c12.35083 12.35083 19.28949 29.102142 19.28949 46.568817l0 0l0 0c0 36.372528 -29.485779 65.85828 -65.85828 65.85828l-154.14175 0c-36.372528 0 -65.85828 -29.485748 -65.85828 -65.85828z" fill-rule="evenodd"/><path fill="#ffffff" d="m391.3622 426.6496l0 0c0 -26.292236 21.314056 -47.606293 47.606293 -47.606293l153.29132 0l0 0c12.625977 0 24.734863 5.0156555 33.66278 13.943573c8.927856 8.9279175 13.9435425 21.036743 13.9435425 33.66272l0 0l0 0c0 26.292236 -21.314087 47.606323 -47.606323 47.606323l-153.29132 0c-26.292236 0 -47.606293 -21.314087 -47.606293 -47.606323z" fill-rule="evenodd"/><path stroke="#000000" stroke-width="16.0" stroke-linejoin="round" stroke-linecap="butt" d="m391.3622 426.6496l0 0c0 -26.292236 21.314056 -47.606293 47.606293 -47.606293l153.29132 0l0 0c12.625977 0 24.734863 5.0156555 33.66278 13.943573c8.927856 8.9279175 13.9435425 21.036743 13.9435425 33.66272l0 0l0 0c0 26.292236 -21.314087 47.606323 -47.606323 47.606323l-153.29132 0c-26.292236 0 -47.606293 -21.314087 -47.606293 -47.606323z" fill-rule="evenodd"/><path fill="#ffffff" d="m215.99475 151.67848l0 0c0 -26.292236 21.314072 -47.6063 47.606293 -47.6063l153.29135 0l0 0c12.625977 0 24.734802 5.015648 33.66272 13.943558c8.9279175 8.9279175 13.943573 21.036766 13.943573 33.662743l0 0l0 0c0 26.292221 -21.314056 47.606293 -47.606293 47.606293l-153.29135 0c-26.292221 0 -47.606293 -21.314072 -47.606293 -47.606293z" fill-rule="evenodd"/><path stroke="#000000" stroke-width="16.0" stroke-linejoin="round" stroke-linecap="butt" d="m215.99475 151.67848l0 0c0 -26.292236 21.314072 -47.6063 47.606293 -47.6063l153.29135 0l0 0c12.625977 0 24.734802 5.015648 33.66272 13.943558c8.9279175 8.9279175 13.943573 21.036766 13.943573 33.662743l0 0l0 0c0 26.292221 -21.314056 47.606293 -47.606293 47.606293l-153.29135 0c-26.292221 0 -47.606293 -21.314072 -47.606293 -47.606293z" fill-rule="evenodd"/><path fill="#000000" fill-opacity="0.0" d="m340.2467 199.28477l175.37012 179.74803" fill-rule="evenodd"/><path stroke="#000000" stroke-width="16.0" stroke-linejoin="round" stroke-linecap="butt" d="m340.2467 199.28477l175.37012 179.74803" fill-rule="evenodd"/><path fill="#000000" fill-opacity="0.0" d="m515.6142 379.0433l-175.37012 -179.74803" fill-rule="evenodd"/><path stroke="#000000" stroke-width="16.0" stroke-linejoin="round" stroke-linecap="butt" d="m515.6142 379.0433l-175.37012 -179.74803" fill-rule="evenodd"/><path fill="#000000" d="m244.8819 133.95538l0 0c0 -4.8357544 3.9201508 -8.755905 8.755905 -8.755905l102.39369 0c2.3222046 0 4.5493164 0.922493 6.1913757 2.5645447c1.6420288 1.6420441 2.5645447 3.8691406 2.5645447 6.1913605l0 0l0 0c0 4.8357544 -3.920166 8.755905 -8.75592 8.755905l-102.39369 0c-4.8357544 0 -8.755905 -3.9201508 -8.755905 -8.755905z" fill-rule="evenodd"/><path stroke="#000000" stroke-width="1.0" stroke-linejoin="round" stroke-linecap="butt" d="m244.8819 133.95538l0 0c0 -4.8357544 3.9201508 -8.755905 8.755905 -8.755905l102.39369 0c2.3222046 0 4.5493164 0.922493 6.1913757 2.5645447c1.6420288 1.6420441 2.5645447 3.8691406 2.5645447 6.1913605l0 0l0 0c0 4.8357544 -3.920166 8.755905 -8.75592 8.755905l-102.39369 0c-4.8357544 0 -8.755905 -3.9201508 -8.755905 -8.755905z" fill-rule="evenodd"/><path fill="#000000" d="m63.133858 409.40945l0 0c0 -4.8357544 3.9201508 -8.75592 8.755905 -8.75592l67.65354 0c2.3222198 0 4.5493164 0.92251587 6.1913605 2.5645447c1.6420593 1.6420593 2.5645447 3.8691711 2.5645447 6.1913757l0 0l0 0c0 4.8357544 -3.9201508 8.75589 -8.755905 8.75589l-67.65354 0c-4.8357544 0 -8.755905 -3.9201355 -8.755905 -8.75589z" fill-rule="evenodd"/><path stroke="#000000" stroke-width="1.0" stroke-linejoin="round" stroke-linecap="butt" d="m63.133858 409.40945l0 0c0 -4.8357544 3.9201508 -8.75592 8.755905 -8.75592l67.65354 0c2.3222198 0 4.5493164 0.92251587 6.1913605 2.5645447c1.6420593 1.6420593 2.5645447 3.8691711 2.5645447 6.1913757l0 0l0 0c0 4.8357544 -3.9201508 8.75589 -8.755905 8.75589l-67.65354 0c-4.8357544 0 -8.755905 -3.9201355 -8.755905 -8.75589z" fill-rule="evenodd"/><path fill="#000000" d="m420.53018 409.40945l0 0c0 -4.8357544 3.920166 -8.75592 8.75592 -8.75592l143.08658 0c2.3222046 0 4.5493164 0.92251587 6.1914062 2.5645447c1.6420288 1.6420593 2.5645142 3.8691711 2.5645142 6.1913757l0 0l0 0c0 4.8357544 -3.920166 8.75589 -8.75592 8.75589l-143.08658 0c-4.8357544 0 -8.75592 -3.9201355 -8.75592 -8.75589z" fill-rule="evenodd"/><path stroke="#000000" stroke-width="1.0" stroke-linejoin="round" stroke-linecap="butt" d="m420.53018 409.40945l0 0c0 -4.8357544 3.920166 -8.75592 8.75592 -8.75592l143.08658 0c2.3222046 0 4.5493164 0.92251587 6.1914062 2.5645447c1.6420288 1.6420593 2.5645142 3.8691711 2.5645142 6.1913757l0 0l0 0c0 4.8357544 -3.920166 8.75589 -8.75592 8.75589l-143.08658 0c-4.8357544 0 -8.75592 -3.9201355 -8.75592 -8.75589z" fill-rule="evenodd"/></g></svg>